<svg width="230" height="82" viewBox="0 0 230 82" fill="none" xmlns="http://www.w3.org/2000/svg">
<path d="M39.5993 9.74167C39.5993 9.74167 39.7658 8.67042 38.3617 6.02847C36.9611 3.38652 31.7607 4.04882 31.7607 4.04882V0.335619C31.7607 -0.105912 26.2346 -0.105912 26.2346 0.335619V6.11171C26.2346 6.11171 24.5012 6.93687 23.1839 8.4207C18.4829 14.4429 25.9885 17.8268 25.9885 17.8268C25.9885 17.8268 25.576 13.5381 27.3891 11.392C31.5146 7.26621 39.5993 9.74167 39.5993 9.74167ZM26.6472 44.8868C26.6472 44.8868 25.8221 42.4113 27.8849 41.4233V49.1972H29.2058V40.6814C29.2058 40.6814 33.4146 39.0311 33.4942 36.7221C33.5738 34.4131 29.9476 32.9257 29.9476 31.4418C29.9476 29.958 29.9476 28.3909 29.8644 28.3909C29.8644 28.3909 27.7184 28.8035 27.7184 30.6999V36.9718H29.2021C29.2021 36.9718 29.8608 37.3012 29.1189 37.6305C28.377 37.9598 25.243 39.3641 24.9933 42.0856C24.8305 43.6527 26.6436 44.8904 26.6436 44.8904M26.6436 33.9173C26.6436 33.9173 24.9101 29.2957 28.4603 27.649C32.0068 25.9987 35.5534 25.4196 35.7198 21.3771C35.8827 17.3346 31.0189 15.1052 31.0189 15.1052C31.0189 15.1052 31.1853 11.3087 31.0189 11.3087C31.0189 11.3087 27.3058 12.1339 26.8933 15.268C26.81 19.5567 26.81 22.2819 26.81 22.2819L30.0273 20.7148C30.0273 20.7148 31.1817 20.798 30.4398 21.7064C29.6979 22.6148 22.9342 25.0903 22.6844 28.3873C22.4384 31.6879 26.6436 33.9137 26.6436 33.9137M39.9395 51.137C39.9395 51.137 55.0558 37.2758 56.5939 28.8107C58.1319 20.3457 54.7518 18.5433 54.7518 18.5433C54.7518 18.5433 55.852 33.5952 41.0035 48.0354C41.0035 48.0354 56.0257 30.3995 52.8772 12.5501C52.8772 12.5501 52.6528 10.2049 49.5804 8.31213C49.5804 8.31213 54.1909 32.7447 39.7948 47.0221C29.8825 55.4799 28.7606 56.1929 28.757 56.1929C28.757 56.1929 27.6315 55.4763 17.7193 47.0221C3.32315 32.7447 7.93367 8.31213 7.93367 8.31213C4.86119 10.2085 4.63682 12.5501 4.63682 12.5501C1.48834 30.3995 16.5142 48.0354 16.5142 48.0354C1.66567 33.5988 2.76583 18.5433 2.76583 18.5433C2.76583 18.5433 -0.614255 20.3457 0.923792 28.8107C2.46184 37.2758 17.5781 51.137 17.5781 51.137C6.2581 44.5683 0.388189 31.8074 0.388189 31.8074C-0.455023 35.1695 0.388189 38.5027 0.388189 38.5027C2.76583 45.3247 20.7917 54.4232 20.7917 54.4232C8.07481 49.8739 3.39914 44.4779 3.39914 44.4779C3.39914 44.4779 2.69345 47.8689 5.62841 50.5218C14.4333 58.4802 28.757 57.456 28.7606 57.456C28.7606 57.456 43.088 58.4802 51.8929 50.5218C54.8278 47.8689 54.1221 44.4779 54.1221 44.4779C54.1221 44.4779 49.4465 49.8739 36.7295 54.4232C36.7295 54.4232 54.7591 45.3283 57.1331 38.5027C57.1331 38.5027 57.9763 35.1695 57.1331 31.8074C57.1331 31.8074 51.2632 44.5683 39.9431 51.137" fill="#21409A"  shape-rendering="geometricPrecision" />
<path d="M62.6414 56.8039H70.3295L74.1053 45.9804H94.8703L98.7108 56.8039H106.331L88.26 6.16458H80.712L62.6414 56.8039ZM84.4842 16.5667L92.3052 38.7647H76.6632L84.4842 16.5667ZM115.707 56.8039H122.921L135.664 22.119H128.181L119.347 47.1633L110.383 22.119H102.763L115.707 56.8039ZM152.255 57.4989C156.706 57.4989 160.952 55.4177 163.514 52.0206V56.8039H170.728V22.119H163.514V26.6251C161.02 23.435 156.774 21.424 152.323 21.424C143.489 21.424 135.47 28.3588 135.47 39.4596C135.47 50.5604 143.697 57.4989 152.255 57.4989ZM153.264 50.7009C147.264 50.7009 142.612 45.7068 142.612 39.3931C142.612 33.0793 147.264 28.1555 153.264 28.1555C159.264 28.1555 163.916 33.2198 163.916 39.3931C163.916 45.5663 159.4 50.7009 153.264 50.7009ZM176.188 56.8076H183.402V37.7296C183.402 31.6266 187.11 27.8783 191.967 27.8783C197.359 27.8783 200.122 31.4861 200.122 37.1751V56.8076H207.404V36.5504C207.404 27.1168 202.213 21.4277 193.72 21.4277C189.269 21.4277 185.63 23.4387 183.337 26.6288V22.1227H176.188V56.8076Z" fill="#21409A" shape-rendering="geometricPrecision" />
<path d="M229.991 28.9218V22.373H222.734V10.2713C219.94 10.8528 217.413 12.1429 215.342 13.9491V22.373H210.484V28.9218H215.342V42.5607C215.342 53.2015 218.493 56.4722 228.893 56.4722H229.988V49.5819C223.689 49.5819 222.73 48.6261 222.73 42.4917V28.9218H229.988H229.991Z" fill="#21409A" shape-rendering="geometricPrecision" />
<path d="M226.699 77.2242C228.907 77.2242 229.991 75.9404 229.991 74.6529C229.991 72.9251 228.46 72.4848 227.095 72.1629C225.824 71.841 224.869 71.7041 224.869 70.8421C224.869 70.1132 225.478 69.5213 226.666 69.5213C227.689 69.5213 228.349 69.8432 228.907 70.5202L229.876 69.7063C229.105 68.8294 227.999 68.4039 226.663 68.4039C224.768 68.4039 223.615 69.5879 223.615 70.8569C223.615 72.5181 225.096 72.9399 226.414 73.2617C227.553 73.5318 228.738 73.7205 228.738 74.6529C228.738 75.4298 228.06 76.0736 226.76 76.0736C225.607 76.0736 224.815 75.6 224.141 74.7861L223.136 75.6999C223.976 76.6988 225.143 77.2205 226.695 77.2205M217.748 77.0503H219.034V72.6661C219.034 70.7015 219.743 69.8062 221.523 69.8062H222.33V68.5889H221.573C220.384 68.5889 219.513 69.0625 219.019 69.9061V68.5889H217.751V77.0466L217.748 77.0503ZM211.732 76.0366C210.05 76.0366 208.75 74.5974 208.75 72.8215C208.75 71.0456 210.05 69.6064 211.732 69.6064C213.414 69.6064 214.733 71.0456 214.733 72.8215C214.733 74.5974 213.414 76.0366 211.732 76.0366ZM211.732 77.2168C214.106 77.2168 216.015 75.3077 216.015 72.8178C216.015 70.3278 214.106 68.4188 211.732 68.4188C209.358 68.4188 207.467 70.3278 207.467 72.8178C207.467 75.3077 209.358 77.2168 211.732 77.2168ZM201.747 69.7692H203.166V73.8167C203.166 76.34 203.808 77.0466 206.214 77.0466H206.394V75.8109C204.762 75.8109 204.452 75.5223 204.452 73.7982V69.7692H206.394V68.5889H204.452V65.8622L203.17 66.5911V68.5889H201.751V69.7692H201.747ZM196.884 77.2168C198.844 77.2168 200.148 76.118 200.807 74.5789L199.636 74.072C199.175 75.1893 198.286 76.0366 196.917 76.0366C195.137 76.0366 193.837 74.5974 193.837 72.8215C193.837 71.0456 195.123 69.6064 196.852 69.6064C198.138 69.6064 199.06 70.2834 199.571 71.4526L200.724 70.9457C200.115 69.4547 198.664 68.4261 196.866 68.4261C194.446 68.4261 192.551 70.2871 192.551 72.8252C192.551 75.3632 194.359 77.2242 196.881 77.2242M186.766 76.044C185.084 76.044 183.783 74.6048 183.783 72.8289C183.783 71.053 185.084 69.6138 186.766 69.6138C188.448 69.6138 189.767 71.053 189.767 72.8289C189.767 74.6048 188.448 76.044 186.766 76.044ZM186.766 77.2242C189.14 77.2242 191.049 75.3151 191.049 72.8252C191.049 70.3352 189.14 68.4261 186.766 68.4261C184.392 68.4261 182.501 70.3352 182.501 72.8252C182.501 75.3151 184.392 77.2242 186.766 77.2242ZM176.669 76.044C174.991 76.044 173.669 74.6048 173.669 72.8289C173.669 71.053 174.987 69.6138 176.669 69.6138C178.434 69.6138 179.753 71.0678 179.753 72.8289C179.753 74.59 178.434 76.044 176.669 76.044ZM176.605 77.2242C177.66 77.2242 178.928 76.684 179.637 75.6703V77.0577H180.855V64.7042H179.623V69.9653C178.913 68.9663 177.66 68.4261 176.605 68.4261C174.148 68.4261 172.386 70.4055 172.386 72.8252C172.386 75.2448 174.18 77.2242 176.605 77.2242ZM162.992 77.054H164.278L165.117 72.5514C165.431 70.8754 166.27 69.895 168.035 69.895H168.777L169.008 68.5963H168.136C167.016 68.5963 166.011 69.0181 165.352 69.932C165.301 69.0884 164.858 68.5963 163.968 68.5963H163.374L163.176 69.7285H163.424C164.098 69.7285 164.296 70.1021 164.134 70.9124L162.996 77.0577L162.992 77.054ZM157.258 76.0218C155.313 76.0218 154.192 74.2792 154.488 72.4515C154.769 70.757 156.184 69.6064 157.701 69.6064C159.678 69.6212 160.766 71.4341 160.453 73.21C160.172 74.886 158.756 76.0218 157.254 76.0218M157.186 77.2205C159.462 77.2205 161.288 75.6148 161.667 73.3801C162.113 70.7718 160.482 68.4225 157.748 68.4225C155.521 68.4225 153.645 70.0467 153.267 72.2813C152.82 74.8897 154.434 77.2205 157.186 77.2205ZM148.09 69.7248H149.704L148.451 77.1724C148.202 78.6301 147.824 79.0001 146.574 79.0001H146.311L146.113 80.2173H146.707C148.616 80.2173 149.308 79.507 149.704 77.1724L150.972 69.7248H152.784L152.982 68.5926H151.177L151.293 67.9341C151.606 66.0879 151.97 65.9177 153.205 65.9177H153.468L153.684 64.7005H153.306C151.116 64.7005 150.475 65.2592 150.028 67.9156L149.913 68.5926H148.314L148.09 69.7248ZM139.921 77.2205C142.129 77.2205 143.217 75.9367 143.217 74.6492C143.217 72.9214 141.686 72.4811 140.317 72.1592C139.049 71.8373 138.091 71.7005 138.091 70.8384C138.091 70.1095 138.703 69.5176 139.888 69.5176C140.908 69.5176 141.571 69.8395 142.129 70.5165L143.098 69.7026C142.323 68.8257 141.221 68.4003 139.885 68.4003C137.986 68.4003 136.837 69.5842 136.837 70.8532C136.837 72.5144 138.318 72.9362 139.636 73.258C140.774 73.5281 141.96 73.7168 141.96 74.6492C141.96 75.4261 141.282 76.0699 139.982 76.0699C138.826 76.0699 138.037 75.5963 137.363 74.7824L136.358 75.6962C137.198 76.6951 138.368 77.2168 139.917 77.2168M130.973 77.0466H132.255V72.6624C132.255 70.6978 132.965 69.8025 134.745 69.8025H135.551V68.5852H134.795C133.606 68.5852 132.735 69.0588 132.241 69.9024V68.5852H130.973V77.0429V77.0466ZM124.958 76.0329C123.275 76.0329 121.975 74.5937 121.975 72.8178C121.975 71.0419 123.275 69.6027 124.958 69.6027C126.64 69.6027 127.958 71.0419 127.958 72.8178C127.958 74.5937 126.64 76.0329 124.958 76.0329ZM124.958 77.2131C127.331 77.2131 129.241 75.304 129.241 72.8141C129.241 70.3241 127.331 68.415 124.958 68.415C122.584 68.415 120.693 70.3241 120.693 72.8141C120.693 75.304 122.584 77.2131 124.958 77.2131ZM114.973 69.7655H116.388V73.813C116.388 76.3363 117.029 77.0429 119.436 77.0429H119.616V75.8072C117.984 75.8072 117.671 75.5186 117.671 73.7945V69.7655H119.616V68.5852H117.671V65.8585L116.388 66.5874V68.5852H114.973V69.7655ZM110.11 77.2131C112.069 77.2131 113.373 76.1143 114.032 74.5752L112.862 74.0683C112.401 75.1856 111.511 76.0329 110.142 76.0329C108.363 76.0329 107.059 74.5937 107.059 72.8178C107.059 71.0419 108.345 69.6027 110.074 69.6027C111.36 69.6027 112.282 70.2797 112.793 71.4489L113.946 70.942C113.337 69.451 111.886 68.4225 110.092 68.4225C107.671 68.4225 105.776 70.2834 105.776 72.8215C105.776 75.3595 107.588 77.2205 110.11 77.2205M99.9951 76.0403C98.3129 76.0403 97.0126 74.6011 97.0126 72.8252C97.0126 71.0493 98.3129 69.6101 99.9951 69.6101C101.677 69.6101 102.996 71.0493 102.996 72.8252C102.996 74.6011 101.677 76.0403 99.9951 76.0403ZM99.9951 77.2205C102.369 77.2205 104.278 75.3114 104.278 72.8215C104.278 70.3315 102.369 68.4225 99.9951 68.4225C97.6213 68.4225 95.7302 70.3315 95.7302 72.8215C95.7302 75.3114 97.6213 77.2205 99.9951 77.2205ZM89.8984 76.0403C88.2162 76.0403 86.8979 74.6011 86.8979 72.8252C86.8979 71.0493 88.2162 69.6101 89.8984 69.6101C91.6635 69.6101 92.9818 71.0641 92.9818 72.8252C92.9818 74.5863 91.6635 76.0403 89.8984 76.0403ZM89.8336 77.2205C90.889 77.2205 92.1569 76.6803 92.8666 75.6666V77.054H94.0841V64.7005H92.8521V69.9616C92.1425 68.9626 90.889 68.4225 89.8336 68.4225C87.377 68.4225 85.6155 70.4018 85.6155 72.8215C85.6155 75.2411 87.4094 77.2205 89.8336 77.2205ZM76.3473 81.1127C78.8688 81.1127 79.9891 79.4885 80.4357 76.8801L81.9162 68.5889H80.6627L79.8234 73.2063C79.5928 74.7491 78.6887 76.0662 77.0389 76.0662C75.5585 76.0662 74.8489 74.9155 75.1622 73.2396L75.6233 70.7866C75.9043 69.2623 75.4576 68.5889 74.3554 68.5889H73.5989L73.4188 69.7211H73.635C74.3266 69.7211 74.4743 70.043 74.3266 70.905L73.8835 73.2063C73.4368 75.526 74.7372 77.1983 76.8805 77.1983C77.7378 77.1983 78.595 76.9097 79.2866 76.303L79.1714 76.9097C78.8436 78.6893 78.0836 79.925 76.4518 79.925C75.2163 79.925 74.4274 79.3331 74.0816 78.3156L72.8641 78.7041C73.3108 80.11 74.6435 81.1053 76.3545 81.1053M68.855 65.8881C70.4183 65.8881 71.1459 67.0054 70.9478 68.1746C70.7677 69.2401 69.86 70.1391 68.5092 70.1391H65.1304L65.8544 65.8881H68.855ZM68.2282 71.3194C69.7087 71.3194 70.6164 72.3516 70.3859 73.7057C70.1733 74.9414 69.1684 75.8035 67.6663 75.8035H64.1578L64.9143 71.3157H68.2246L68.2282 71.3194ZM62.645 77.0392H67.569C69.7915 77.0392 71.3728 75.7887 71.7042 73.9277C71.9528 72.507 71.308 71.4193 70.2526 70.8458C71.3404 70.3574 72.014 69.3733 72.2121 68.2375C72.5075 66.5097 71.3872 64.6857 69.0171 64.6857H64.7522L62.6414 77.0392H62.645Z" fill="#21409A" shape-rendering="geometricPrecision" />
</svg>
